<svg width="36" height="16" viewBox="0 0 36 16" fill="none" xmlns="http://www.w3.org/2000/svg">
<path fill-rule="evenodd" clip-rule="evenodd" d="M5.6049 11.4052C4.94867 11.4052 4.59924 11.2113 4.39219 10.9682C4.16322 10.6993 3.99235 10.2346 3.97799 9.48685C3.94901 7.97818 4.56434 5.7482 5.72942 3.07954L4.25652 2.43651C3.0712 5.1515 2.3352 7.64691 2.37113 9.51771C2.38923 10.4597 2.60486 11.3482 3.16864 12.0102C3.7543 12.6979 4.60382 13.0124 5.6049 13.0124C7.28905 13.0124 8.78174 12.1551 9.91304 11.1609C10.1919 10.9158 10.4546 10.6574 10.6989 10.3934C10.7892 10.8703 10.949 11.2945 11.1822 11.6603C11.8251 12.6687 12.8948 13.041 14.0138 12.9807C15.3683 12.9077 16.655 12.2831 17.7644 11.5368C18.3209 12.3633 19.2119 12.9888 20.228 12.9888C21.3358 12.9888 22.1769 12.464 22.823 11.7898C23.0721 11.5299 23.3002 11.2394 23.5112 10.9364C23.5782 11.1157 23.6573 11.2894 23.749 11.4552C24.2428 12.3458 25.1084 12.9888 26.3404 12.9888C28.1367 12.9888 29.2003 11.4362 29.5229 9.98514C29.8409 8.55381 29.6333 7.3785 29.039 6.53768C28.4498 5.70389 27.5417 5.29279 26.6695 5.29279C24.8707 5.29279 23.8979 7.08927 23.1448 8.46095C22.7137 9.24596 22.2832 10.0302 21.6626 10.6779C21.2146 11.1454 20.7659 11.3817 20.228 11.3817C19.7063 11.3817 19.3021 10.9677 19.0416 10.554C19.6719 10.0054 20.2834 9.37406 20.8525 8.67058C21.9653 7.29503 22.1631 5.82938 21.6303 4.65146C21.1136 3.50902 19.9613 2.77729 18.6997 2.77729C16.6611 2.77729 15.3289 4.31527 14.5877 6.02331C13.8831 7.64715 13.5985 9.64278 13.711 11.3792C13.1313 11.3643 12.7617 11.1483 12.5374 10.7964C12.2518 10.3484 12.0503 9.48603 12.3391 8.0087L10.9138 7.3232C10.5654 8.04751 9.82879 9.09533 8.85211 9.95366C7.87007 10.8167 6.74198 11.4052 5.6049 11.4052ZM19.6031 7.65979C18.4631 9.0689 17.0093 10.3685 15.3026 11.0442C15.2434 9.59082 15.4998 7.95875 16.062 6.6631C16.7032 5.18562 17.6162 4.38443 18.6997 4.38443C19.3423 4.38443 19.9144 4.75764 20.1659 5.31374C20.4015 5.83438 20.4112 6.6609 19.6031 7.65979ZM31.905 2.56873C31.4395 3.93118 30.8841 7.43699 31.8738 13.1224L33.4571 12.8468C32.4988 7.34173 33.0721 4.12385 33.4258 3.08837L31.905 2.56873ZM24.8274 8.72833C24.7424 9.77324 24.9989 11.3817 26.3404 11.3817C27.036 11.3817 27.7052 10.7559 27.954 9.63651C28.2 8.52883 27.9962 7.84691 27.7266 7.46524C27.4519 7.07654 27.0434 6.89993 26.6695 6.89993C25.7888 6.89993 25.2045 8.07877 24.8274 8.72833ZM11.6479 4.83993C11.8287 4.29025 11.9987 3.66639 12.0831 3.07242L13.6743 3.29863C13.5715 4.02133 13.3714 4.74388 13.1746 5.34205L11.6479 4.83993Z" fill="#4B8DDE"/>
</svg>
