<svg width="400" height="400" viewBox="0 0 400 400" fill="none" xmlns="http://www.w3.org/2000/svg">
<rect width="400" height="400" fill="#4B8CDE"/>
<path fill-rule="evenodd" clip-rule="evenodd" d="M106.408 227.651C101.364 227.651 98.679 226.161 97.0878 224.293C95.3281 222.226 94.015 218.655 93.9045 212.908C93.6818 201.314 98.4107 184.176 107.365 163.667L96.0451 158.725C86.9358 179.59 81.2794 198.768 81.5556 213.145C81.6946 220.385 83.3518 227.213 87.6846 232.301C92.1855 237.586 98.7142 240.003 106.408 240.003C119.351 240.003 130.822 233.414 139.517 225.773C141.659 223.89 143.679 221.904 145.556 219.875C146.25 223.54 147.478 226.8 149.27 229.611C154.211 237.362 162.432 240.223 171.031 239.759C181.441 239.198 191.329 234.398 199.855 228.662C204.133 235.015 210.98 239.822 218.789 239.822C227.302 239.822 233.767 235.788 238.732 230.607C240.646 228.61 242.399 226.377 244.021 224.049C244.536 225.427 245.144 226.761 245.849 228.035C249.643 234.88 256.295 239.822 265.764 239.822C279.569 239.822 287.743 227.889 290.222 216.738C292.666 205.738 291.07 196.705 286.503 190.243C281.975 183.836 274.996 180.676 268.293 180.676C254.469 180.676 246.992 194.482 241.205 205.024C237.892 211.057 234.583 217.084 229.814 222.062C226.371 225.655 222.922 227.471 218.789 227.471C214.779 227.471 211.673 224.289 209.671 221.109C214.515 216.893 219.215 212.042 223.588 206.635C232.14 196.064 233.661 184.8 229.566 175.747C225.595 166.968 216.739 161.344 207.044 161.344C191.376 161.344 181.139 173.164 175.442 186.29C170.027 198.77 167.84 214.107 168.704 227.452C164.25 227.337 161.409 225.677 159.685 222.972C157.491 219.529 155.942 212.902 158.161 201.548L147.207 196.28C144.53 201.847 138.869 209.899 131.363 216.496C123.816 223.128 115.146 227.651 106.408 227.651ZM213.986 198.867C205.226 209.696 194.053 219.684 180.936 224.877C180.481 213.707 182.452 201.165 186.773 191.207C191.7 179.853 198.717 173.695 207.044 173.695C211.982 173.695 216.379 176.563 218.312 180.837C220.122 184.838 220.197 191.19 213.986 198.867ZM308.529 159.741C304.952 170.212 300.683 197.155 308.289 240.848L320.457 238.73C313.092 196.423 317.498 171.693 320.217 163.735L308.529 159.741ZM254.136 207.079C253.483 215.109 255.454 227.471 265.764 227.471C271.109 227.471 276.252 222.661 278.164 214.058C280.055 205.546 278.489 200.305 276.417 197.372C274.306 194.385 271.166 193.027 268.293 193.027C261.525 193.027 257.034 202.087 254.136 207.079ZM152.849 177.196C154.239 172.972 155.545 168.177 156.194 163.612L168.422 165.351C167.633 170.905 166.094 176.458 164.582 181.055L152.849 177.196Z" fill="white"/>
</svg>