<?xml version="1.0" standalone="no"?>
<!DOCTYPE svg PUBLIC "-//W3C//DTD SVG 20010904//EN"
 "http://www.w3.org/TR/2001/REC-SVG-20010904/DTD/svg10.dtd">
<svg version="1.0" xmlns="http://www.w3.org/2000/svg"
 width="700.000000pt" height="700.000000pt" viewBox="0 0 700.000000 700.000000"
 preserveAspectRatio="xMidYMid meet">
<metadata>
Created by potrace 1.14, written by Peter Selinger 2001-2017
</metadata>
<g transform="translate(0.000000,700.000000) scale(0.100000,-0.100000)"
fill="#000000" stroke="none">
<path d="M0 3500 l0 -3500 3500 0 3500 0 0 3500 0 3500 -3500 0 -3500 0 0
-3500z m1868 635 c2 -2 -21 -65 -51 -141 -110 -278 -164 -485 -174 -659 -6
-116 8 -197 44 -252 39 -60 152 -84 270 -59 218 46 440 232 607 508 l16 28 89
-44 88 -45 -5 -128 c-5 -138 4 -189 40 -243 33 -48 70 -72 119 -77 l44 -5 1
134 c3 234 51 446 146 638 55 111 71 135 147 211 132 132 242 177 408 166 268
-16 448 -273 378 -540 -32 -124 -114 -244 -279 -407 -47 -46 -86 -88 -86 -92
0 -14 63 -79 91 -94 15 -7 50 -14 77 -14 111 0 209 88 331 296 35 60 91 156
125 213 72 122 168 226 246 267 50 26 64 29 155 29 88 0 107 -3 157 -27 157
-73 238 -217 238 -422 0 -241 -109 -450 -277 -532 -53 -26 -68 -29 -163 -29
-99 0 -110 2 -172 33 -76 37 -145 106 -180 182 -13 27 -26 49 -30 50 -3 0 -16
-15 -27 -33 -28 -46 -137 -148 -191 -179 -73 -43 -153 -61 -239 -56 -102 6
-172 40 -254 123 l-63 63 -94 -54 c-158 -91 -300 -134 -436 -134 -193 0 -340
101 -391 268 -9 31 -19 60 -23 64 -3 5 -33 -17 -65 -48 -230 -214 -469 -312
-694 -283 -173 21 -284 118 -337 294 -14 46 -19 92 -18 195 1 213 55 435 186
766 l60 152 91 -40 c51 -22 93 -41 95 -43z m3632 31 c52 -19 94 -38 93 -44
-48 -226 -68 -452 -58 -657 8 -168 31 -406 50 -520 8 -49 15 -97 15 -105 0
-20 -190 -56 -201 -39 -8 14 -45 287 -59 434 -13 145 -13 530 1 653 12 112 52
313 62 312 1 -1 45 -16 97 -34z m-2627 -52 c32 -4 60 -11 63 -16 11 -17 -49
-258 -64 -258 -4 0 -49 14 -100 31 -76 25 -92 34 -87 48 4 9 16 54 27 101 11
47 22 91 24 99 3 10 15 12 42 8 20 -4 63 -9 95 -13z"/>
<path d="M3492 3929 c-141 -70 -246 -254 -301 -526 -21 -102 -40 -343 -27
-343 3 0 46 20 94 44 123 62 239 150 367 280 164 166 215 252 215 363 0 172
-180 267 -348 182z"/>
<path d="M4651 3619 c-46 -14 -119 -90 -171 -178 -43 -74 -43 -74 -37 -151 10
-129 57 -219 134 -259 39 -20 126 -14 164 12 122 82 183 324 117 468 -14 31
-38 65 -54 76 -25 18 -98 45 -114 42 -3 0 -20 -5 -39 -10z"/>
</g>
</svg>
